# xmcd
#
# Track frame offsets: 
#        150
#        23840
#        52814
#        82951
#        110712
#        162042
#        197720
#        214311
#        243727
#        263174
#        288718
#
# Disc length: 4379 seconds
#
# Revision: 0
# Processed by: cddbd v1.4PL0 Copyright (c) Steve Scherf et al.
# Submitted via: ExactAudioCopy v0.95a3
#
DISCID=9c11190b
DTITLE=John Lee Hooker - Endless Boogie
DYEAR=1900
DGENRE=Blues
TTITLE0=A Good 'un
TTITLE1=House Rent Blues
TTITLE2=Kick It 4 It Kix U
TTITLE3=Standin' At The Crossroads
TTITLE4=Pots On, Gas On High
TTITLE5=Might As Well Call It Through
TTITLE6=Doin' The Shout
TTITLE7=Sheep Out On The Farm
TTITLE8=Don't Need No Steam Heat
TTITLE9=Sittin' In My Dark Room
TTITLE10=Endless Boogie
EXTD=
EXTT0=
EXTT1=
EXTT2=
EXTT3=
EXTT4=
EXTT5=
EXTT6=
EXTT7=
EXTT8=
EXTT9=
EXTT10=
PLAYORDER=
